# xmcd
# 
# Track frame offsets:
#     150
#     24500
#     48525
#     79487
#     112057
#     135480
#     151502
#     175955
#     196232
# 
# Disc length: 2765
# 
# Revision: 4
# Processed by: cddbd v1.5.2PL0 Copyright (c) Steve Scherf et al.
# Submitted via: BonkEnc v1.0.8
# 
DISCID=700acb09
DTITLE=Enrico Pieranunzi, Marc Johnson - Trasnoche
DYEAR=2002
DGENRE=Contemporary Jazz
TTITLE0=Transnoche
TTITLE1=I sospiri e le lacrime e'l desio
TTITLE2=Islas
TTITLE3=A second thought
TTITLE4=Thiaki
TTITLE5=The way of memories
TTITLE6=The chant of time
TTITLE7=Narrations du large
TTITLE8=Clouds
EXTD=YEAR: 2003
EXTT0=
EXTT1=
EXTT2=
EXTT3=
EXTT4=
EXTT5=
EXTT6=
EXTT7=
EXTT8=
PLAYORDER=
